<svg xmlns="http://www.w3.org/2000/svg" viewBox="0 0 24 24" width="24" height="24">
  <rect x="0.5" y="0.5" width="23" height="23" rx="6" fill="rgba(59, 130, 246, 0.15)" stroke="rgba(59, 130, 246, 0.4)" stroke-width="1.5" />
  <g fill="none" stroke="#3b82f6" stroke-width="1.8" stroke-linecap="round" stroke-linejoin="round">
    <path d="m10.065 12.493-6.18 1.318a.934.934 0 0 1-1.108-.702l-.537-2.15a1.07 1.07 0 0 1 .691-1.265l13.504-4.44"/><path d="m13.56 11.747 4.332-.924"/><path d="m16 21-3.105-6.21"/><path d="M16.485 5.338l2.15.538a2.085 2.085 0 0 1 1.462 2.527l-2.45 9.803a1.96 1.96 0 0 1-2.477 1.379l-2.15-.538"/><path d="m23.307 13.543-3.09-1.255"/><path d="M3 21l3.105-6.21"/><path d="m8.902 14.92.337 1.346a2.085 2.085 0 0 0 2.527 1.462l5.255-1.314"/>
  </g>
</svg>